<svg width="207" height="318" viewBox="0 0 207 318" fill="none" xmlns="http://www.w3.org/2000/svg">
<path fill-rule="evenodd" clip-rule="evenodd" d="M0 67.6104C0 30.2702 30.2702 0 67.6104 0H111.49C127.293 0 140.103 12.8108 140.103 28.6137C140.103 44.4165 127.293 57.2273 111.49 57.2273H98.5585C76.3945 57.2273 58.4269 75.1948 58.4269 97.3589C58.4269 119.523 76.3945 137.49 98.5585 137.49H120.684L122.505 137.49C134.19 137.49 139.508 122.903 130.565 115.382L113.754 101.246C99.0924 88.9173 107.811 65.0025 126.968 65.0025H169.995C189.997 65.0025 206.212 81.2173 206.212 101.219V252.066C206.212 288.086 177.012 317.286 140.992 317.286H111.992C91.9881 317.286 75.7719 301.07 75.7719 281.066C75.7719 261.062 91.9881 244.846 111.992 244.846H132.178C145.807 244.846 156.856 233.797 156.856 220.168C156.856 206.539 145.807 195.49 132.178 195.49H122.505H93.3707C74.0718 195.49 58.4269 211.135 58.4269 230.434V286.662C58.4269 302.796 45.3476 315.876 29.2135 315.876C13.0793 315.876 0 302.796 0 286.662V67.6104ZM206.212 24.6778C206.212 11.0486 195.163 0 181.534 0C167.905 0 156.856 11.0486 156.856 24.6778V26.8027C156.856 40.4318 167.905 51.4804 181.534 51.4804C195.163 51.4804 206.212 40.4318 206.212 26.8027V24.6778Z" fill="white"/>
<path d="M67.6104 1H111.489C126.74 1 139.103 13.3629 139.104 28.6133C139.104 40.2785 131.87 50.2573 121.64 54.3027C119.683 55.0763 117.617 55.6326 115.471 55.9424C114.171 56.1299 112.842 56.2275 111.489 56.2275H98.5586C75.8423 56.2275 57.4268 74.643 57.4268 97.3594C57.427 120.075 75.8424 138.49 98.5586 138.49H122.505C135.123 138.49 140.866 122.737 131.208 114.616L114.398 100.481C102.721 90.6618 106.626 73.0737 118.954 67.6426C120.67 66.8869 122.551 66.3657 124.582 66.1357C125.355 66.0481 126.151 66.0029 126.968 66.0029H169.995C189.445 66.0031 205.212 81.7702 205.212 101.22V252.065C205.212 287.533 176.46 316.286 140.992 316.286H111.992C92.5408 316.286 76.7715 300.517 76.7715 281.065C76.7717 261.614 92.541 245.846 111.992 245.846H132.179C146.36 245.845 157.856 234.349 157.856 220.168C157.856 205.987 146.36 194.49 132.179 194.49H93.3711C73.5199 194.49 57.4268 210.583 57.4268 230.435V286.662C57.4267 302.244 44.7955 314.876 29.2139 314.876C13.632 314.876 1.00002 302.244 1 286.662V67.6104L1.00586 66.749C1.46703 30.3581 31.11 1 67.6104 1ZM67.6104 9.1416C35.3189 9.1416 9.1416 35.3189 9.1416 67.6104V286.662C9.14162 297.748 18.1285 306.734 29.2139 306.734C40.2991 306.734 49.2851 297.747 49.2852 286.662V230.435C49.2852 206.087 69.0234 186.349 93.3711 186.349H132.179C150.856 186.349 165.998 201.49 165.998 220.168C165.998 238.846 150.856 253.987 132.179 253.987H111.992C97.0374 253.987 84.9133 266.111 84.9131 281.065C84.9131 296.02 97.0373 308.145 111.992 308.145H140.992C171.963 308.144 197.07 283.036 197.07 252.065V101.22C197.07 86.2666 184.948 74.1447 169.995 74.1445H126.968C116.341 74.1445 111.504 87.4106 119.638 94.25L136.448 108.386C151.92 121.396 142.72 146.632 122.505 146.632H98.5586C71.346 146.632 49.2854 124.572 49.2852 97.3594C49.2852 70.1466 71.3458 48.0859 98.5586 48.0859H111.489C122.243 48.0859 130.962 39.3674 130.962 28.6133C130.962 17.8593 122.243 9.1416 111.489 9.1416H67.6104ZM181.534 1C194.611 1.00021 205.212 11.601 205.212 24.6777V26.8027C205.212 39.8794 194.611 50.4803 181.534 50.4805C168.457 50.4805 157.856 39.8796 157.856 26.8027V24.6777C157.856 11.6009 168.457 1 181.534 1ZM181.534 9.1416C172.954 9.1416 165.997 16.0973 165.997 24.6777V26.8027C165.997 35.3831 172.954 42.3389 181.534 42.3389C190.114 42.3387 197.07 35.383 197.07 26.8027V24.6777C197.07 16.0975 190.114 9.14182 181.534 9.1416Z" fill="black" stroke="white" stroke-width="2"/>
</svg>
